<?xml version="1.0" encoding="UTF-8"?>
<!-- Generator: visioncortex VTracer 0.6.4 -->
<svg version="1.1" xmlns="http://www.w3.org/2000/svg" width="500" height="500">
<path d="M0 0 C3.77016416 1.25672139 4.00711403 2.29562331 5.86328125 5.72265625 C6.41298584 6.72353271 6.96269043 7.72440918 7.52905273 8.75561523 C8.11759033 9.84688721 8.70612793 10.93815918 9.3125 12.0625 C10.5788684 14.36821047 11.84714539 16.67287356 13.1171875 18.9765625 C13.44071701 19.5653569 13.76424652 20.15415131 14.09757996 20.76078796 C17.28123823 26.54346431 20.59445875 32.24595085 23.9375 37.9375 C25.10437927 39.92826081 26.27104387 41.91914747 27.4375 43.91015625 C28.02144531 44.9067627 28.60539062 45.90336914 29.20703125 46.93017578 C32.30437038 52.2332725 35.37113858 57.55394935 38.4375 62.875 C39.06003662 63.95515381 39.68257324 65.03530762 40.32397461 66.14819336 C41.58576826 68.33796334 42.84740534 70.52782355 44.10888672 72.71777344 C47.23680146 78.14659938 50.36853731 83.57322007 53.5 89 C57.26363919 95.52233275 61.02644622 102.04513762 64.78515625 108.5703125 C71.08201076 119.49887858 77.3952582 130.41747007 83.75 141.3125 C84.33467041 142.31490723 84.91934082 143.31731445 85.52172852 144.35009766 C88.52799872 149.52545305 88.52799872 149.52545305 91.67675781 154.61401367 C93 157 93 157 93 160 C32.28 160 -28.44 160 -91 160 C-89.90355403 155.61421613 -88.01643521 152.14337631 -85.8125 148.25 C-85.37252686 147.46560547 -84.93255371 146.68121094 -84.47924805 145.87304688 C-79.65016092 137.30501637 -74.67331345 128.82256759 -69.703125 120.3359375 C-65.96365385 113.94717965 -62.25880504 107.53880768 -58.5625 101.125 C-57.94101074 100.04686035 -57.31952148 98.9687207 -56.67919922 97.85791016 C-54.78565623 94.57221441 -52.89271763 91.28617126 -51 88 C-43.12927193 74.33469675 -35.24178678 60.6801538 -27.28466797 47.06494141 C-22.23656024 38.4210387 -17.23083206 29.75307087 -12.23632812 21.078125 C-8.18185182 14.03779405 -4.10060873 7.01356256 0 0 Z " fill="#01E0FE" transform="translate(358,170)"/>
<path d="M0 0 C0.66 0 1.32 0 2 0 C3.52352827 2.64078234 5.047052 5.28156731 6.57055664 7.92236328 C7.91732423 10.25671642 9.26415607 12.59103235 10.61108398 14.92529297 C14.02377298 20.83978489 17.43539406 26.75488441 20.84375 32.671875 C26.86955329 43.13006324 32.91082033 53.57856374 39 64 C45.74701194 75.54729516 52.43339318 87.12902027 59.10888672 98.71777344 C62.85143641 105.21336316 66.59900243 111.70606042 70.34619141 118.19897461 C73.28182759 123.28625032 76.21616612 128.37426104 79.14590454 133.4649353 C80.53328095 135.87543748 81.92139624 138.28551376 83.30957031 140.69555664 C84.29173815 142.40143968 85.27283385 144.10793986 86.25390625 145.81445312 C86.846875 146.84376953 87.43984375 147.87308594 88.05078125 148.93359375 C88.57325439 149.84165771 89.09572754 150.74972168 89.6340332 151.68530273 C90.69977966 153.49126201 91.83680752 155.25521129 93 157 C93 157.99 93 158.98 93 160 C32.28 160 -28.44 160 -91 160 C-90.02376827 155.11884136 -88.41533326 151.94826216 -85.875 147.8125 C-84.95957178 146.28988277 -84.0456044 144.76638664 -83.1328125 143.2421875 C-82.38112793 141.99066895 -82.38112793 141.99066895 -81.61425781 140.71386719 C-78.60440148 135.6537397 -75.68346663 130.54215522 -72.75 125.4375 C-67.85923411 116.9430443 -62.94612425 108.46233961 -58 100 C-51.25280507 88.45281274 -44.56660602 76.87097832 -37.89111328 65.28222656 C-34.14561565 58.78152037 -30.39502735 52.28374968 -26.64501953 45.78564453 C-23.74705111 40.76346298 -20.85005713 35.74072934 -17.95724487 30.71557617 C-16.94052802 28.94954478 -15.92344342 27.18372569 -14.90625 25.41796875 C-13.63599127 23.21265845 -12.36640982 21.00695784 -11.09765625 18.80078125 C-9.40510718 15.86326831 -7.70285426 12.93154692 -6 10 C-5.44070801 9.0203125 -4.88141602 8.040625 -4.30517578 7.03125 C-3.77263184 6.1134375 -3.24008789 5.195625 -2.69140625 4.25 C-1.98479858 3.02023438 -1.98479858 3.02023438 -1.26391602 1.765625 C-0.84682373 1.18296875 -0.42973145 0.6003125 0 0 Z " fill="#02E0FD" transform="translate(141,170)"/>
<path d="M0 0 C56.43 0 112.86 0 171 0 C161.31934913 17.74785993 151.5746243 35.43781937 141.33959961 52.87231445 C136.85877077 60.50870951 132.44676925 68.18290376 128.0625 75.875 C122.29634556 85.98912362 116.50306528 96.08697314 110.66894531 106.16210938 C107.29574588 111.99422655 103.95312033 117.84202758 100.64453125 123.7109375 C99.55435116 125.63917557 98.46374207 127.56717044 97.37304688 129.49511719 C96.67320848 130.73562263 95.97572734 131.97746127 95.28076172 133.22070312 C94.31409468 134.94988466 93.33885283 136.67426406 92.36328125 138.3984375 C91.80938721 139.38505371 91.25549316 140.37166992 90.68481445 141.38818359 C89.0215024 143.96666676 87.24978069 145.92606495 85 148 C80.29702233 141.23386318 76.22225672 134.2142948 72.25 127 C68.28106773 119.85125258 64.30485866 112.71535138 60.125 105.6875 C55.77155586 98.35946058 51.53374632 90.96720825 47.3125 83.5625 C42.06605471 74.36075458 36.80060347 65.17071816 31.5 56 C24.26365362 43.4766629 17.07988137 30.92373071 9.91845703 18.35742188 C8.53365223 15.93392535 7.14417595 13.51350798 5.74951172 11.09570312 C5.37857895 10.45107117 5.00764618 9.80643921 4.62547302 9.14227295 C3.90526637 7.89098057 3.18336916 6.64065938 2.45960999 5.39141846 C0 1.11233037 0 1.11233037 0 0 Z " fill="#FE2ACF" transform="translate(166,170)"/>
<path d="M0 0 C56.43 0 112.86 0 171 0 C165 11 165 11 162 15 C162.33 12.69 162.66 10.38 163 8 C163.66 8 164.32 8 165 8 C165.33 6.02 165.66 4.04 166 2 C85.315 1.505 85.315 1.505 3 1 C7.09966095 8.56871113 7.09966095 8.56871113 11.4375 16 C11.953125 16.99 12.46875 17.98 13 19 C12.67 19.99 12.34 20.98 12 22 C9.99654339 18.52281278 7.99781651 15.04293033 6 11.5625 C5.42765625 10.56927734 4.8553125 9.57605469 4.265625 8.55273438 C3.72421875 7.60849609 3.1828125 6.66425781 2.625 5.69140625 C2.12226563 4.81685791 1.61953125 3.94230957 1.1015625 3.04125977 C0 1 0 1 0 0 Z " fill="#EA3ABF" transform="translate(166,170)"/>
<path d="M0 0 C0.33 0 0.66 0 1 0 C1 1.65 1 3.3 1 5 C3.95945335 6.47972667 6.6179564 6.14176792 9.92214966 6.15821838 C11.00277076 6.16562535 11.00277076 6.16562535 12.10522258 6.17318195 C14.53124625 6.18860104 16.95724337 6.19692946 19.38330078 6.20532227 C21.11756628 6.21489733 22.85182942 6.22490719 24.58609009 6.23532104 C29.30481442 6.26241649 34.0235488 6.28340089 38.74230814 6.30332303 C43.66976673 6.32515403 48.59719419 6.3525568 53.52462769 6.37937927 C62.86019304 6.42934528 72.19577565 6.47426958 81.53137481 6.51740164 C92.1575999 6.56674066 102.78379375 6.62167113 113.40998864 6.67708123 C135.27329667 6.79096125 157.13663452 6.89778714 179 7 C178.67 5.35 178.34 3.7 178 2 C179.5 3.3125 179.5 3.3125 181 5 C181 5.99 181 6.98 181 8 C120.28 8 59.56 8 -3 8 C-2.22404875 4.89619499 -1.4731994 2.74997221 0 0 Z " fill="#3DD5EF" transform="translate(270,322)"/>
<path d="M0 0 C0.99 0.33 1.98 0.66 3 1 C3 1.66 3 2.32 3 3 C3.66 3.33 4.32 3.66 5 4 C6.2890625 5.99609375 6.2890625 5.99609375 7.625 8.4375 C8.07101563 9.24058594 8.51703125 10.04367188 8.9765625 10.87109375 C10 13 10 13 10 15 C10.66 15 11.32 15 12 15 C12.83819158 16.62249941 13.6704116 18.24808497 14.5 19.875 C14.9640625 20.77992188 15.428125 21.68484375 15.90625 22.6171875 C17 25 17 25 17 27 C17.66 27 18.32 27 19 27 C19.268125 27.721875 19.53625 28.44375 19.8125 29.1875 C20.91906348 32.04615015 20.91906348 32.04615015 22.6875 34.5625 C24 37 24 37 23.58203125 39.15234375 C23.38996094 39.76207031 23.19789063 40.37179688 23 41 C22.42894531 39.95585937 21.85789063 38.91171875 21.26953125 37.8359375 C15.73782921 27.77629768 10.01267992 17.85029192 4.11645508 7.99951172 C3.58044678 7.10119629 3.04443848 6.20288086 2.4921875 5.27734375 C2.01120605 4.47546631 1.53022461 3.67358887 1.03466797 2.84741211 C0 1 0 1 0 0 Z " fill="#E74BBE" transform="translate(184,202)"/>
<path d="M0 0 C1.09716797 3.75976562 1.09716797 3.75976562 0.22265625 5.921875 C-0.8515625 7.61458333 -1.92578125 9.30729167 -3 11 C-3.66 11 -4.32 11 -5 11 C-4.67 13.64 -4.34 16.28 -4 19 C-4.66 19 -5.32 19 -6 19 C-6 19.66 -6 20.32 -6 21 C-6.639375 21.28875 -7.27875 21.5775 -7.9375 21.875 C-10.15206079 22.82823451 -10.15206079 22.82823451 -11 25 C-11.66 25 -12.32 25 -13 25 C-13.33 26.65 -13.66 28.3 -14 30 C-14.66 30 -15.32 30 -16 30 C-14.69728821 25.68930993 -13.0324417 22.03667415 -10.7421875 18.1640625 C-10.11699219 17.10058594 -9.49179687 16.03710938 -8.84765625 14.94140625 C-8.19667969 13.84699219 -7.54570312 12.75257813 -6.875 11.625 C-6.21628906 10.50738281 -5.55757813 9.38976562 -4.87890625 8.23828125 C-3.25763124 5.48916275 -1.63119987 2.74323718 0 0 Z " fill="#14D7F4" transform="translate(340,201)"/>
<path d="M0 0 C0.99 0 1.98 0 3 0 C3.4125 1.00675781 3.825 2.01351562 4.25 3.05078125 C5.91109404 6.92374287 7.8871835 10.54567155 10 14.1875 C10.34289062 14.79013672 10.68578125 15.39277344 11.0390625 16.01367188 C12.49888065 18.55163817 13.93549486 20.92256603 15.8125 23.17578125 C17 25 17 25 16.57421875 27.11401367 C16.28998047 28.0475769 16.28998047 28.0475769 16 29 C13.70269365 25.10746632 11.41315303 21.21042018 9.125 17.3125 C8.47402344 16.20970703 7.82304687 15.10691406 7.15234375 13.97070312 C6.52714844 12.90400391 5.90195313 11.83730469 5.2578125 10.73828125 C4.6817627 9.75899658 4.10571289 8.77971191 3.51220703 7.77075195 C2.1230743 5.22550375 1.00960862 2.71467726 0 0 Z " fill="#E14DBD" transform="translate(208,243)"/>
<path d="M0 0 C0.33 1.32 0.66 2.64 1 4 C0.34 4 -0.32 4 -1 4 C-1.04125 4.99 -1.0825 5.98 -1.125 7 C-1.79169944 11.86591086 -4.61891586 15.54716872 -8 19 C-8.66 19 -9.32 19 -10 19 C-8.62394084 14.23448987 -6.53221934 10.2751447 -3.875 6.125 C-3.50246094 5.53203125 -3.12992187 4.9390625 -2.74609375 4.328125 C-1.83635 2.8818657 -0.91896202 1.44041954 0 0 Z " fill="#22D5EC" transform="translate(118,210)"/>
<path d="M0 0 C0.99 0 1.98 0 3 0 C1.23570801 4.97209562 -1.3939166 9.43438061 -4 14 C-6 11 -6 11 -6 9 C-6.66 9 -7.32 9 -8 9 C-8 8.34 -8 7.68 -8 7 C-6.865625 6.5875 -5.73125 6.175 -4.5625 5.75 C-0.90456616 4.43314602 -0.90456616 4.43314602 -0.0625 1.8125 C-0.041875 1.214375 -0.02125 0.61625 0 0 Z " fill="#F234C7" transform="translate(314,204)"/>
<path d="M0 0 C1.24546405 2.49092811 0.7767578 3.41080733 0 6 C-0.66 6 -1.32 6 -2 6 C-1.67 6.99 -1.34 7.98 -1 9 C-2.36328125 11.48046875 -2.36328125 11.48046875 -4.3125 14.1875 C-4.94800781 15.08855469 -5.58351563 15.98960937 -6.23828125 16.91796875 C-6.81964844 17.60503906 -7.40101562 18.29210937 -8 19 C-8.66 19 -9.32 19 -10 19 C-8.62394084 14.23448987 -6.53221934 10.2751447 -3.875 6.125 C-3.50246094 5.53203125 -3.12992187 4.9390625 -2.74609375 4.328125 C-1.83635 2.8818657 -0.91896202 1.44041954 0 0 Z " fill="#27D1EA" transform="translate(107,229)"/>
<path d="M0 0 C0.66 0 1.32 0 2 0 C0.68139111 4.61513112 -1.21355437 8.09897612 -4 12 C-6.00240521 9.74729413 -6.94368221 8.39422456 -7.375 5.375 C-7.25125 4.59125 -7.1275 3.8075 -7 3 C-6.01 2.34 -5.02 1.68 -4 1 C-3.67 2.65 -3.34 4.3 -3 6 C-2.01 4.02 -1.02 2.04 0 0 Z " fill="#EE3BC3" transform="translate(285,256)"/>
<path d="M0 0 C0.99 0 1.98 0 3 0 C1.47762789 5.785014 -1.33046726 11.27535988 -5 16 C-5.99 16 -6.98 16 -8 16 C-8.66 14.68 -9.32 13.36 -10 12 C-9.34 12 -8.68 12 -8 12 C-8 12.66 -8 13.32 -8 14 C-7.01 14 -6.02 14 -5 14 C-5 12.35 -5 10.7 -5 9 C-4.34 9 -3.68 9 -3 9 C-1.76078698 6.02588876 -0.69941596 3.14737182 0 0 Z " fill="#E445BD" transform="translate(258,301)"/>
<path d="M0 0 C2.7710688 2.34591852 3.52059284 4.14776201 4.1875 7.6875 C4.34605469 8.49574219 4.50460937 9.30398438 4.66796875 10.13671875 C4.77753906 10.75160156 4.88710938 11.36648438 5 12 C2.36 12 -0.28 12 -3 12 C-2.01 11.01 -1.02 10.02 0 9 C0.66 9.33 1.32 9.66 2 10 C1.505 8.9171875 1.505 8.9171875 1 7.8125 C-0.00603529 4.98302573 -0.16977402 2.97104534 0 0 Z " fill="#15D9F3" transform="translate(444,317)"/>
<path d="M0 0 C0.66 0.33 1.32 0.66 2 1 C0.36012756 3.83682399 -1.28786691 6.66884252 -2.9375 9.5 C-3.40607422 10.31082031 -3.87464844 11.12164062 -4.35742188 11.95703125 C-5.0293457 13.10751953 -5.0293457 13.10751953 -5.71484375 14.28125 C-6.33540649 15.34956055 -6.33540649 15.34956055 -6.96850586 16.43945312 C-7.47909546 17.21192383 -7.47909546 17.21192383 -8 18 C-8.33 18 -8.66 18 -9 18 C-9 16.35 -9 14.7 -9 13 C-8.34 13 -7.68 13 -7 13 C-6.71125 11.88625 -6.4225 10.7725 -6.125 9.625 C-5 6 -5 6 -3 4 C-2.67 3.01 -2.34 2.02 -2 1 C-1.34 0.67 -0.68 0.34 0 0 Z " fill="#E245BD" transform="translate(326,186)"/>
<path d="M0 0 C1.43842533 2.87685066 0.53845803 5.02957878 -0.26171875 8.0234375 C-1.27719153 10.74211066 -2.69572638 12.27179479 -5 14 C-5.66 14 -6.32 14 -7 14 C-5.53967505 8.68972746 -3.01679014 4.53669968 0 0 Z " fill="#24D3EE" transform="translate(287,293)"/>
<path d="M0 0 C3.92491136 4.52874388 7.37459686 9.60598991 10 15 C9.67 15.66 9.34 16.32 9 17 C6.04415849 14.24800963 3.81234853 11.62469707 2 8 C2 6.68 2 5.36 2 4 C1.34 4 0.68 4 0 4 C0 2.68 0 1.36 0 0 Z " fill="#26D2E7" transform="translate(377,201)"/>
<path d="M0 0 C1.231394 3.69418201 0.64432764 6.2056261 0 10 C-0.99 9.67 -1.98 9.34 -3 9 C-3 9.66 -3 10.32 -3 11 C-3.66 11 -4.32 11 -5 11 C-5 11.99 -5 12.98 -5 14 C-5.66 14 -6.32 14 -7 14 C-5.53967505 8.68972746 -3.01679014 4.53669968 0 0 Z " fill="#22D5EF" transform="translate(126,196)"/>
<path d="M0 0 C0.83583327 2.37607949 1.1842383 3.54449627 0.22265625 5.921875 C-0.8515625 7.61458333 -1.92578125 9.30729167 -3 11 C-3.66 11 -4.32 11 -5 11 C-5.33 12.65 -5.66 14.3 -6 16 C-6.66 16 -7.32 16 -8 16 C-6.42986223 10.03347646 -3.24970218 5.17090975 0 0 Z " fill="#2BD0E8" transform="translate(340,201)"/>
<path d="M0 0 C1 2 1 2 0.375 5.3125 C-1.31315099 9.83981402 -3.62649968 12.81324984 -8 15 C-6.62712658 11.30123909 -4.93644547 8.0485524 -2.875 4.6875 C-2.33617187 3.80449219 -1.79734375 2.92148437 -1.2421875 2.01171875 C-0.83226562 1.34785156 -0.42234375 0.68398438 0 0 Z " fill="#25D2ED" transform="translate(279,307)"/>
<path d="M0 0 C1.32 1.65 2.64 3.3 4 5 C3.01 5.66 2.02 6.32 1 7 C0.67 6.67 0.34 6.34 0 6 C-0.33 6.66 -0.66 7.32 -1 8 C-1.66 8 -2.32 8 -3 8 C-3.33 9.65 -3.66 11.3 -4 13 C-4.66 13 -5.32 13 -6 13 C-4.58707905 8.1725201 -2.57025846 4.2837641 0 0 Z " fill="#23D3EE" transform="translate(308,256)"/>
<path d="M0 0 C8 9.42857143 8 9.42857143 8 14 C6 14 6 14 3.875 12.375 C1.52263985 9.39534381 1.66336938 7.70293685 2 4 C1.34 4 0.68 4 0 4 C0 2.68 0 1.36 0 0 Z " fill="#24D1EB" transform="translate(183,241)"/>
<path d="M0 0 C0.33 0 0.66 0 1 0 C0.67 3.3 0.34 6.6 0 10 C-1.98 10.66 -3.96 11.32 -6 12 C-4.43358249 7.69235185 -2.31663844 3.93828536 0 0 Z " fill="#24D6EB" transform="translate(86,265)"/>
<path d="M0 0 C0.66 0.33 1.32 0.66 2 1 C-0.31 4.96 -2.62 8.92 -5 13 C-6 10 -6 10 -5 7 C-4.34 7 -3.68 7 -3 7 C-3 5.02 -3 3.04 -3 1 C-2.01 0.67 -1.02 0.34 0 0 Z " fill="#E842BF" transform="translate(278,269)"/>
<path d="M0 0 C0.66 0.33 1.32 0.66 2 1 C-0.64 5.62 -3.28 10.24 -6 15 C-7.04449911 11.86650268 -6.93423645 11.01031744 -6 8 C-5.34 8 -4.68 8 -4 8 C-3.67 6.02 -3.34 4.04 -3 2 C-2.01 2 -1.02 2 0 2 C0 1.34 0 0.68 0 0 Z " fill="#E245B9" transform="translate(335,170)"/>
<path d="M0 0 C2.61724095 2.36797991 4.32861729 4.89600354 6 8 C6 8.66 6 9.32 6 10 C4.35 10 2.7 10 1 10 C0.67 9.01 0.34 8.02 0 7 C0.66 7 1.32 7 2 7 C2 6.01 2 5.02 2 4 C1.34 4 0.68 4 0 4 C0 2.68 0 1.36 0 0 Z " fill="#20D3E9" transform="translate(411,260)"/>
<path d="M0 0 C2.61724095 2.36797991 4.32861729 4.89600354 6 8 C6 8.66 6 9.32 6 10 C5.34 10 4.68 10 4 10 C3.67 9.01 3.34 8.02 3 7 C0.98491642 6.26676204 0.98491642 6.26676204 -1 6 C-1.042721 4.33388095 -1.04063832 2.66617115 -1 1 C-0.67 0.67 -0.34 0.34 0 0 Z " fill="#20D5EF" transform="translate(371,191)"/>
<path d="M0 0 C0.33 0 0.66 0 1 0 C1 2.64 1 5.28 1 8 C0.34 7.67 -0.32 7.34 -1 7 C-1.66 8.32 -2.32 9.64 -3 11 C-3.66 11 -4.32 11 -5 11 C-3.77782954 6.95743617 -2.37245704 3.50711041 0 0 Z " fill="#27D3ED" transform="translate(355,175)"/>
<path d="M0 0 C3.09592835 3.5087188 4.74194623 6.49197399 6 11 C5.34 11 4.68 11 4 11 C4 10.01 4 9.02 4 8 C2.68 7.34 1.36 6.68 0 6 C0 4.02 0 2.04 0 0 Z " fill="#27D2EB" transform="translate(435,301)"/>
<path d="M0 0 C2.63978826 3.18595135 5.10498388 6.30970546 7 10 C6.67 10.66 6.34 11.32 6 12 C5.01 11.67 4.02 11.34 3 11 C2.67 8.69 2.34 6.38 2 4 C1.34 4 0.68 4 0 4 C0 2.68 0 1.36 0 0 Z " fill="#27D2EB" transform="translate(425,284)"/>
<path d="M0 0 C2.61500768 2.36595933 4.38999603 4.86049226 6 8 C5.67 8.66 5.34 9.32 5 10 C2.5 8.9375 2.5 8.9375 0 7 C-0.3125 3.3125 -0.3125 3.3125 0 0 Z " fill="#20D4E9" transform="translate(154,191)"/>
<path d="M0 0 C0.99 0.33 1.98 0.66 3 1 C4.1875 4.0625 4.1875 4.0625 5 7 C4.34 7 3.68 7 3 7 C2.67 6.34 2.34 5.68 2 5 C0.68 5 -0.64 5 -2 5 C-1.34 3.35 -0.68 1.7 0 0 Z " fill="#35CAE8" transform="translate(358,170)"/>
<path d="M0 0 C1.5625 1.25 1.5625 1.25 3 3 C2.6875 5.1875 2.6875 5.1875 2 7 C0.02 6.34 -1.96 5.68 -4 5 C-3.34 4.54625 -2.68 4.0925 -2 3.625 C-1.34 3.08875 -0.68 2.5525 0 2 C0 1.34 0 0.68 0 0 Z " fill="#11DAF1" transform="translate(228,319)"/>
<path d="M0 0 C4.42857143 5.14285714 4.42857143 5.14285714 5 9 C3.68 9.33 2.36 9.66 1 10 C1.33 8.02 1.66 6.04 2 4 C1.34 4 0.68 4 0 4 C0 2.68 0 1.36 0 0 Z " fill="#26D2EA" transform="translate(208,284)"/>
<path d="M0 0 C0.93065133 2.60582371 1.14917407 3.64198224 0.0625 6.25 C-0.4634375 7.11625 -0.4634375 7.11625 -1 8 C-1.66 8 -2.32 8 -3 8 C-3 8.99 -3 9.98 -3 11 C-3.66 11 -4.32 11 -5 11 C-3.77472971 6.94718288 -2.30119506 3.55639236 0 0 Z " fill="#2FD0E9" transform="translate(318,239)"/>
<path d="M0 0 C2.72426311 2.35277269 3.8141763 4.62496331 5 8 C4.01 7.67 3.02 7.34 2 7 C2 6.34 2 5.68 2 5 C1.01 4.67 0.02 4.34 -1 4 C-0.67 2.68 -0.34 1.36 0 0 Z " fill="#1FD3F2" transform="translate(419,274)"/>
<path d="M0 0 C2.72426311 2.35277269 3.8141763 4.62496331 5 8 C3.35 7.67 1.7 7.34 0 7 C0 4.69 0 2.38 0 0 Z " fill="#1ED3ED" transform="translate(393,229)"/>
<path d="M0 0 C3.09592835 3.5087188 4.74194623 6.49197399 6 11 C5.34 11 4.68 11 4 11 C3.67 9.35 3.34 7.7 3 6 C2.01 5.67 1.02 5.34 0 5 C0 3.35 0 1.7 0 0 Z " fill="#2FCDE4" transform="translate(163,206)"/>
<path d="M0 0 C1.231394 2.46278801 1.07159196 4.2795055 1 7 C-0.65 7.33 -2.3 7.66 -4 8 C-2.68 5.36 -1.36 2.72 0 0 Z " fill="#24D3EC" transform="translate(133,184)"/>
<path d="M0 0 C4.42857143 5.14285714 4.42857143 5.14285714 5 9 C4.01 9 3.02 9 2 9 C2 7.35 2 5.7 2 4 C1.34 4 0.68 4 0 4 C0 2.68 0 1.36 0 0 Z " fill="#2BCDE8" transform="translate(219,303)"/>
<path d="M0 0 C0.33 1.32 0.66 2.64 1 4 C0.34 4 -0.32 4 -1 4 C-1.33 5.65 -1.66 7.3 -2 9 C-2.66 9 -3.32 9 -4 9 C-2.94124926 5.59687262 -1.99097846 2.98646769 0 0 Z " fill="#2BCFE9" transform="translate(328,222)"/>
<path d="M0 0 C0.99 0 1.98 0 3 0 C1.7508258 3.45925163 0.32472205 6.14693203 -2 9 C-1.34 6.03 -0.68 3.06 0 0 Z " fill="#E04CBC" transform="translate(314,204)"/>
</svg>
